<?xml version="1.0" encoding="UTF-8"?>
<svg width="115px" height="75px" viewBox="0 0 115 75" version="1.1" xmlns="http://www.w3.org/2000/svg" xmlns:xlink="http://www.w3.org/1999/xlink">
    <title>Final</title>
    <g id="Page-1" stroke="none" strokeWidth="1" fill="none" fillRule="evenodd">
        <g id="Final">
            <rect id="Rectangle" fill="#FFFFFF" fillRule="nonzero" opacity="0" x="0" y="0" width="114.254056" height="75"></rect>
            <g id="Group" transform="translate(1.5374, 3.1691)">
                <path d="M43.7184469,0.169065677 C43.96324,0.169065677 44.200108,0.221018151 44.417604,0.316117595 C44.2397328,0.116232653 43.9870148,0.000880550403 43.7184469,0.000880550403 L36.4186841,0.000880550403 C36.1351469,0.000880550403 35.8789067,0.126799258 35.7054383,0.329325851 C35.9246953,0.229823655 36.1650856,0.169065677 36.4186841,0.169065677 L43.7184469,0.169065677 Z" id="Path"></path>
                <path d="M20.441097,46.295818 L20.4419776,46.2931763 L20.4419776,46.2922958 L20.9350858,42.9012962 L19.6213046,51.3211191 C19.6221852,51.3211191 19.6230657,51.3211191 19.6239463,51.3211191 L20.441097,46.295818 Z" id="Path"></path>
                <path d="M27.5365722,37.4726839 L22.948024,37.4726839 C22.9471435,37.4726839 22.9471435,37.4726839 22.9471435,37.4726839 L27.5374527,37.4726839 C27.5374527,37.4726839 27.5365722,37.4726839 27.5365722,37.4726839 Z" id="Path"></path>
                <path d="M29.8216005,32.0256181 C30.1474041,32.4033743 30.6220208,32.6199897 31.1239345,32.6199897 L37.0236222,32.6199897 C37.7897011,32.6199897 38.5346467,32.3558245 39.1228544,31.8759246 C39.7110621,31.3960246 40.1099514,30.7268063 40.2473173,29.9897856 L44.4043957,7.61235823 L45.3976566,2.15118463 C45.4918755,1.65367366 45.3545096,1.14735717 45.020781,0.759914998 C44.854357,0.567074459 44.6474276,0.41650034 44.417604,0.316117595 C44.2009886,0.221018151 43.96324,0.169065677 43.7184469,0.169065677 L36.4186841,0.169065677 C36.164205,0.169065677 35.9238148,0.229823655 35.7054383,0.329325851 C35.2132106,0.553866203 34.8389767,0.997663606 34.7350717,1.55417146 L29.4438444,30.6387513 C29.350506,31.1336206 29.4878719,31.6390565 29.8216005,32.0256181 Z M30.2011177,30.7488201 L31.1873342,25.16525 L32.0212154,20.4419776 L32.0819734,20.4419776 L32.8647827,20.4419776 L40.4542466,20.4419776 L41.1754174,20.4419776 L39.4900439,29.7890201 C39.3826168,30.3833916 39.0717825,30.895872 38.6367906,31.2621809 C38.1982765,31.6311316 37.6329631,31.8503886 37.0245028,31.8503886 L31.1248151,31.8503886 C30.8465612,31.8503886 30.5832766,31.7253505 30.4054054,31.5122573 C30.2733228,31.3555193 30.1993566,31.1617982 30.18879,30.9619133 C30.1843873,30.8905887 30.1879095,30.8192641 30.2011177,30.7488201 Z" id="Shape" fill="#000000" fillRule="nonzero"></path>
                <path d="M5.95516237,31.8486275 L13.2558058,31.8486275 C13.7119309,31.8486275 14.1011341,31.5210628 14.1803837,31.0719821 L16.1792331,19.6380351 L24.5268509,19.6380351 C24.9794538,19.6380351 25.3677766,19.3148731 25.4496677,18.8701951 L26.4746284,13.3200859 C26.5257003,13.0462348 26.4517341,12.7635781 26.2729824,12.5496043 C26.0951112,12.3356306 25.8300655,12.211473 25.5518116,12.211473 L17.5291169,12.211473 L18.3163289,7.64141639 L29.7361871,7.64141639 C30.1905511,7.64141639 30.5806349,7.31561275 30.6598845,6.86741259 L31.6848451,1.1042102 C31.7332754,0.83123958 31.6584286,0.550344002 31.4805574,0.337250804 C31.3018057,0.124157607 31.0385211,0.00176110081 30.7611478,0.00176110081 L11.2490314,0.00176110081 C10.7937868,0.00176110081 10.4045836,0.3284453 10.325334,0.776645455 L5.03058445,30.747059 C4.98215418,31.0200296 5.05788151,31.3009252 5.23575269,31.5131378 C5.41450443,31.7253505 5.677789,31.8486275 5.95516237,31.8486275 Z M7.70305492,21.0125743 L7.80431822,20.441097 L8.95607815,13.9188602 L17.6603189,14.0940897 L23.0668983,18.7002489 L15.3902599,18.7002489 L15.0855895,20.4419776 L14.9852068,21.0134548 L13.2549252,30.9108413 L5.95516237,30.9108413 L7.70305492,21.0125743 Z" id="Shape" fill="#000000" fillRule="nonzero"></path>
                <path d="M46.540611,31.8486275 L63.4049123,31.8486275 C63.8601569,31.8486275 64.2493601,31.5219433 64.3286097,31.0737432 L65.3104234,25.523634 C65.3588536,25.2506633 65.2840069,24.9697678 65.1052551,24.7575551 C64.9265034,24.5453425 64.6632188,24.4220654 64.3858454,24.4220654 L55.9404865,24.4220654 L60.0588208,1.10156855 C60.107251,0.828597929 60.0315237,0.54770235 59.8536525,0.335489703 C59.6749008,0.123277056 59.4116162,2.66453526e-15 59.1342428,2.66453526e-15 L51.8335995,2.66453526e-15 C51.3783549,2.66453526e-15 50.9891516,0.326684199 50.9099021,0.774884354 L45.6160331,30.7461784 C45.5676028,31.019149 45.6433301,31.3000446 45.8212013,31.5122573 C45.999953,31.7253505 46.2632376,31.8486275 46.540611,31.8486275 Z M48.2893841,21.0125743 L48.3906474,20.441097 L51.1538145,20.441097 L55.6921713,20.441097 L55.590908,21.0125743 L54.8230681,25.3598516 L64.386726,25.3598516 L63.4049123,30.9099608 L46.540611,30.9099608 L48.2893841,21.0125743 Z" id="Shape" fill="#000000" fillRule="nonzero"></path>
                <path d="M66.9051001,31.8486275 L100.907554,31.8486275 L98.9219128,52.9474957 L91.283138,37.0482776 C91.1272806,36.7233545 90.7979548,36.5164252 90.4378097,36.5164252 L83.1380468,36.5164252 C82.6828023,36.5164252 82.293599,36.8431094 82.2143494,37.2913096 L76.9195999,67.259962 C76.8711696,67.5329326 76.9468969,67.8138282 77.1247681,68.0260408 C77.3035199,68.2382535 77.5668044,68.3615305 77.8441778,68.3615305 L85.1439406,68.3615305 C85.5983046,68.3615305 85.9883885,68.0357269 86.067638,67.5875267 L88.8466551,51.9586376 L96.5083241,67.8305586 C96.6650621,68.1546012 96.9935074,68.3615305 97.3536525,68.3615305 L104.656938,68.3615305 C105.114824,68.3615305 105.505788,68.0313241 105.582396,67.5796018 L111.14043,25.6662831 L111.165966,25.523634 C111.214396,25.2506633 111.13955,24.9697678 110.960798,24.7575551 C110.782927,24.5444619 110.519642,24.4220654 110.241388,24.4220654 L76.3067368,24.4220654 L80.4241905,1.10156855 C80.4726208,0.828597929 80.3968934,0.54770235 80.2190222,0.335489703 C80.0402705,0.123277056 79.7769859,5.32907052e-15 79.4996126,5.32907052e-15 L72.1998497,5.32907052e-15 C71.7446052,5.32907052e-15 71.3554019,0.326684199 71.2761523,0.774884354 L65.9822833,30.7461784 C65.9338531,31.019149 66.0095804,31.3000446 66.1874516,31.5122573 C66.3644422,31.7253505 66.6277268,31.8486275 66.9051001,31.8486275 Z M68.6538732,21.0125743 L68.7551365,20.441097 L76.0566605,20.441097 L75.9553972,21.0125743 L75.1875572,25.3598516 L110.239627,25.3598516 L110.214091,25.5033813 L107.457088,46.2940569 L107.381361,46.8655341 L104.655176,67.4237443 L97.3518914,67.4237443 L88.4292742,48.9392303 L85.1421795,67.4237443 L77.8424167,67.4237443 L81.4746871,46.8655341 L81.5759504,46.2940569 L83.1371663,37.4550919 L90.4369291,37.4550919 L94.6838237,46.2940569 L94.9585554,46.8655341 L99.3604269,56.0267805 L100.329032,46.8655341 L100.38979,46.2940569 L102.015286,30.9108413 L66.9051001,30.9108413 L68.6538732,21.0125743 Z" id="Shape" fill="#000000" fillRule="nonzero"></path>
                <path d="M3.21665062,66.0069387 C5.30091342,67.7689201 8.05439453,68.6617982 11.4004861,68.6617982 C13.9364712,68.6617982 16.326285,68.1748538 18.5038862,67.2150539 C20.6999789,66.2446873 22.58964,64.7486322 24.1191561,62.7665133 C25.6407472,60.7905582 26.6709911,58.3479113 27.1799493,55.5046141 L29.1127574,44.5576115 C29.1374128,44.4202456 29.1268462,44.2837603 29.0925048,44.1543194 L29.8092728,39.1378237 C30.0073966,37.7535985 28.9331251,36.5155446 27.5348111,36.5155446 L22.9462629,36.5155446 C21.8138751,36.5155446 20.850553,37.3406204 20.676204,38.4589194 L18.3550731,53.336699 L18.03015,55.179691 C17.7554183,56.752354 17.1522413,57.9648719 16.2364689,58.7829032 C15.3259798,59.5982929 14.1618921,59.9945406 12.6781647,59.9945406 C11.4806162,59.9945406 10.5912602,59.7286144 10.0338718,59.2046869 C9.48528894,58.6886843 9.21936272,57.9278888 9.21936272,56.8791533 C9.21936272,56.7435485 9.24049593,56.3816423 9.37698124,55.5037335 L12.5363961,37.6171132 C12.5848264,37.3441426 12.509099,37.063247 12.3312278,36.8510344 C12.1524761,36.6388217 11.8891915,36.5155446 11.6118182,36.5155446 L4.31205532,36.5155446 C3.85593021,36.5155446 3.46584639,36.8439899 3.3874774,37.2921901 L0.269448423,55.1884965 C0.0906966915,56.2706929 -2.66453526e-15,57.2991758 -2.66453526e-15,58.2440064 C0.000880550403,61.5945007 1.083077,64.2062132 3.21665062,66.0069387 Z M1.19578745,55.3417123 L2.67335102,46.8646535 L2.77285322,46.2931763 L4.31381642,37.4542114 L11.6135793,37.4542114 L10.0523634,46.2931763 L9.9511001,46.8646535 L8.45416442,55.3417123 C8.33881231,56.0831357 8.28245709,56.595616 8.28245709,56.8809144 C8.28245709,58.1885317 8.65140771,59.1923592 9.39283115,59.8897551 C9.48176674,59.9734074 9.57686618,60.0517764 9.67636838,60.1257426 C10.403703,60.66552 11.4031277,60.9340879 12.6799258,60.9340879 C14.387313,60.9340879 15.7821049,60.4524268 16.8643013,59.4829408 C17.9464978,58.516977 18.6438937,57.1345129 18.9564891,55.3417123 L19.1325991,54.341407 L19.2048043,53.896729 L19.5543828,51.7481861 L19.6239463,51.3211191 C19.6230657,51.3211191 19.6221852,51.3211191 19.6213046,51.3211191 L20.9350858,42.9012962 L21.5549933,38.63591 C21.653615,37.9578862 22.2347782,37.4542114 22.920727,37.4542114 L22.9471435,37.4542114 C22.948024,37.4542114 22.948024,37.4542114 22.948024,37.4542114 L27.5365722,37.4542114 C27.5365722,37.4542114 27.5374527,37.4542114 27.5374527,37.4542114 L27.5488999,37.4542114 C28.3854228,37.4542114 29.0299857,38.1903515 28.9163947,39.0189494 C28.7517317,40.2253035 28.5148637,41.9397351 28.292965,43.4666095 C28.2912039,43.4806983 28.2885622,43.4956677 28.2868011,43.5097565 L28.1908211,44.3947097 L27.8553314,46.2931763 L27.7540681,46.8646535 L27.4088924,48.8185949 L26.8858454,51.781647 L26.2571325,55.3408317 C25.7719492,58.0458825 24.8121492,60.3291497 23.3768521,62.1932749 C21.9380327,64.0574001 20.186618,65.4460281 18.1252495,66.3556367 C16.0612393,67.2661258 13.8184775,67.7222509 11.4004861,67.7222509 C8.26660718,67.7222509 5.74294973,66.9121446 3.8224693,65.2892902 C3.78724728,65.2593514 3.75466692,65.2276516 3.72032545,65.1977129 C1.86676685,63.5783807 0.938666729,61.2607721 0.938666729,58.2431258 C0.938666729,57.3335173 1.02672177,56.3675535 1.19578745,55.3417123 Z" id="Shape" fill="#000000" fillRule="nonzero"></path>
                <path d="M45.6715077,46.5731913 C45.8493789,46.7994928 46.121469,46.9315754 46.4085284,46.9315754 L54.1776246,46.9315754 C54.6451969,46.9315754 55.0414446,46.5872802 55.1066053,46.1249912 C55.1418273,45.8740343 55.1594383,45.5226947 55.1594383,45.0516003 C55.1594383,43.2042055 54.6540024,41.5751873 53.6563388,40.2112147 C52.672764,38.8622115 51.2858971,37.8205203 49.5327213,37.11608 C47.8394228,36.4336535 45.8828398,36.0884777 43.7175664,36.0884777 C41.3215887,36.0884777 39.1563153,36.5032169 37.2833846,37.3203677 C35.3620236,38.1533684 33.8342687,39.3843779 32.7415056,40.9781741 C31.6364149,42.5887008 31.0913542,44.4950924 31.1221734,46.6313077 C31.1221734,48.4205861 31.5712541,49.9430577 32.4570878,51.1573367 C33.2980135,52.3082161 34.3044826,53.2345551 35.4509592,53.9116984 C36.520828,54.5404114 37.9173809,55.2131519 39.6009933,55.9114284 C41.2282504,56.5876911 42.4398878,57.2005542 43.1998028,57.7332872 C43.7580717,58.1251321 44.0178341,58.5865405 44.0178341,59.1861953 C44.0178341,59.7682391 43.8302768,60.1820978 43.4296264,60.4867683 C42.9594125,60.8425106 42.2655388,61.0221429 41.3682579,61.0221429 C40.4172635,61.0221429 39.726912,60.8037664 39.3165755,60.3740578 C38.9088806,59.9469909 38.7406955,59.3446944 38.8040951,58.5337075 C38.8243478,58.2730646 38.7345317,58.0150633 38.557541,57.8239838 C38.3796699,57.6320239 38.1304741,57.5228356 37.8689506,57.5228356 L30.2689201,57.5228356 C29.7907812,57.5228356 29.3883697,57.8829807 29.3364172,58.3584779 C29.2756592,58.9079414 29.2466011,59.3182779 29.2466011,59.6123817 C29.2466011,62.5190786 30.4098082,64.7970625 32.7027614,66.3820532 C34.8847653,67.8957194 37.7289431,68.6635593 41.1569258,68.6635593 C43.6427196,68.6635593 45.8537817,68.2408951 47.7267124,67.4070139 C49.6498345,66.5546411 51.1485312,65.3438843 52.1814169,63.8082044 C53.223108,62.2593162 53.7514382,60.4885294 53.7514382,58.5460352 C53.7514382,56.7611595 53.3058797,55.222838 52.4270904,53.9724564 C51.5870453,52.7766689 50.5682485,51.8054218 49.3962359,51.0842511 C48.3025923,50.4159133 46.8822645,49.6797732 45.1757579,48.898725 C43.5581868,48.1581821 42.3641604,47.5083359 41.6271397,46.9676779 C40.8971635,46.4331838 40.8126306,45.911898 40.8126306,45.5667222 C40.8126306,44.9996478 40.9975462,44.6034001 41.4149271,44.2802381 C41.8824994,43.9156902 42.5279428,43.7307746 43.3336464,43.7307746 C44.0583394,43.7307746 44.6148473,43.9016014 44.9917228,44.2397328 C45.3474652,44.5576115 45.5138892,44.9529786 45.5138892,45.4821894 C45.5138892,45.6961631 45.4971588,45.7718905 45.4962782,45.7745321 C45.4284758,46.0519055 45.492756,46.3468899 45.6715077,46.5731913 Z M43.3336464,42.7903468 C42.3113274,42.7903468 41.4756851,43.0404231 40.8381666,43.5379341 C40.1971259,44.0354451 39.8748444,44.7108272 39.8748444,45.5649611 C39.8748444,45.8203208 39.9153498,46.0624721 39.9866743,46.2940569 C40.0483129,46.4939418 40.1372485,46.6841407 40.25172,46.8655341 C40.4489633,47.1772489 40.7192923,47.4643084 41.072393,47.7231902 C41.8666494,48.305234 43.1055839,48.9806162 44.7847935,49.7502172 C46.4640031,50.5198183 47.8376617,51.2295419 48.9066499,51.8829103 C49.9729965,52.5398009 50.8896494,53.415068 51.6592505,54.5104727 C52.4288515,55.6049968 52.8136521,56.9504778 52.8136521,58.5451546 C52.8136521,60.3088971 52.341677,61.8886045 51.4030103,63.2833963 C50.4643436,64.6781882 49.1109376,65.7665485 47.3463146,66.5484772 C45.5825721,67.3330476 43.5176815,67.724012 41.1569258,67.724012 C37.9103365,67.724012 35.2704464,67.0204523 33.2381361,65.6098105 C31.2023035,64.202691 30.1852678,62.2003193 30.1852678,59.6106206 C30.1852678,59.3543804 30.2134454,58.9695799 30.2698006,58.4597412 L37.8698312,58.4597412 C37.7852983,59.5419377 38.0415385,60.3960716 38.6394322,61.0212624 C39.2364454,61.6464531 40.1469345,61.9599291 41.370019,61.9599291 C42.4803931,61.9599291 43.3556602,61.7186583 43.9975814,61.2343556 C44.6359805,60.7500528 44.9573814,60.0676263 44.9573814,59.1861953 C44.9573814,58.2757062 44.5505671,57.5342828 43.7404607,56.9654472 C42.9277127,56.3966116 41.6702867,55.7546904 39.9620189,55.0449668 C38.3109869,54.3598986 36.9655059,53.712694 35.927337,53.1024726 C34.8891681,52.4896095 33.9848428,51.6574894 33.2161223,50.6034705 C32.4852655,49.6022847 32.1057482,48.3545448 32.0696457,46.8655341 C32.0678846,46.7871651 32.0626013,46.7114378 32.0626013,46.6313077 C32.0608402,46.5168361 32.067004,46.4058868 32.0687651,46.2931763 C32.0987038,44.4748397 32.5777232,42.8775213 33.51639,41.5082654 C34.5105314,40.0571184 35.8903539,38.9467443 37.6576185,38.1806655 C39.421361,37.4110644 41.4422242,37.0262639 43.7193275,37.0262639 C45.7683683,37.0262639 47.5911076,37.3450231 49.1831427,37.9860638 C50.7778195,38.6271045 52.0167539,39.5534435 52.8990654,40.7633198 C53.7813769,41.9705544 54.2216521,43.4032099 54.2216521,45.0516003 C54.2216521,45.4795477 54.2058022,45.7930237 54.1776246,45.9929086 L46.4085284,45.9929086 C46.436706,45.8775565 46.4525559,45.7084909 46.4525559,45.4795477 C46.4525559,44.6817691 46.174302,44.0345645 45.6177942,43.5370536 C45.063928,43.0404231 44.3004908,42.7903468 43.3336464,42.7903468 Z" id="Shape" fill="#000000" fillRule="nonzero"></path>
                <path d="M78.5618264,36.8510344 C78.3830746,36.6388217 78.1197901,36.5155446 77.8424167,36.5155446 L70.5426539,36.5155446 C70.0874093,36.5155446 69.698206,36.8422288 69.6189565,37.290429 L64.3233264,67.2590814 C64.2748961,67.532052 64.3506234,67.8129476 64.5284946,68.0251603 C64.7072463,68.2373729 64.9705309,68.36065 65.2479043,68.36065 L72.5476671,68.36065 C73.0029117,68.36065 73.392115,68.0339658 73.4713645,67.5857656 L78.7669946,37.6171132 C78.8145443,37.3441426 78.7396976,37.0641276 78.5618264,36.8510344 Z M76.2812008,46.2931763 L76.1799375,46.8646535 L72.5476671,67.4228638 L65.2479043,67.4228638 L68.8801747,46.8646535 L68.981438,46.2931763 L70.5426539,37.4542114 L77.8424167,37.4542114 L76.2812008,46.2931763 Z" id="Shape" fill="#000000" fillRule="nonzero"></path>
                <polygon id="Path" fill="#FFFFFF" fillRule="nonzero" points="64.386726 25.3598516 54.8230681 25.3598516 55.590908 21.0125743 55.6921713 20.441097 51.152934 20.441097 48.3897668 20.441097 48.2893841 21.0125743 46.540611 30.9099608 63.4049123 30.9099608"></polygon>
                <polygon id="Path" fill="#FFFFFF" fillRule="nonzero" points="81.5759504 46.2931763 94.6838237 46.2931763 90.4378097 37.4542114 83.1371663 37.4542114"></polygon>
                <polygon id="Path" fill="#FFFFFF" fillRule="nonzero" points="100.38891 46.2931763 107.457968 46.2931763 110.214972 25.5025008 110.240508 25.3598516 75.1875572 25.3598516 75.9553972 21.0125743 76.0566605 20.441097 68.7551365 20.441097 68.6538732 21.0125743 66.9051001 30.9099608 102.015286 30.9099608"></polygon>
                <path d="M33.51639,41.5082654 C32.5768427,42.8775213 32.0978233,44.4748397 32.0687651,46.2931763 L39.9875549,46.2931763 C39.9162303,46.0615916 39.875725,45.8203208 39.875725,45.5640806 C39.875725,44.7099467 40.1980064,44.0345645 40.8390471,43.5370536 C41.4774462,43.0395426 42.312208,42.7894663 43.334527,42.7894663 C44.3013713,42.7894663 45.063928,43.0395426 45.6177942,43.5370536 C46.174302,44.0345645 46.4525559,44.6817691 46.4525559,45.4795477 C46.4525559,45.7076103 46.436706,45.876676 46.4085284,45.9929086 L54.1776246,45.9929086 C54.2058022,45.7930237 54.2216521,45.4795477 54.2216521,45.0516003 C54.2216521,43.4032099 53.7804964,41.9705544 52.8990654,40.7633198 C52.0167539,39.552563 50.7787001,38.6271045 49.1831427,37.9860638 C47.5911076,37.3450231 45.7674877,37.0262639 43.7193275,37.0262639 C41.4422242,37.0262639 39.4222415,37.4110644 37.6576185,38.1806655 C35.8903539,38.9467443 34.5105314,40.0562378 33.51639,41.5082654 Z" id="Path" fill="#FFFFFF" fillRule="nonzero"></path>
                <polygon id="Path" fill="#FFFFFF" fillRule="nonzero" points="76.2812008 46.2931763 77.8424167 37.4542114 70.5426539 37.4542114 68.9805574 46.2931763"></polygon>
                <path d="M31.8988189,25.7472938 L38.0274497,30.7637894 L38.6350295,31.2613004 C39.0700214,30.895872 39.3817362,30.3825111 39.4882828,29.7881396 L41.1736563,20.441097 L40.4524855,20.441097 L32.8630216,20.441097 L32.0802123,20.441097 L32.0194543,20.441097 L31.1855731,25.1643694 L31.2163923,25.1899054 L31.8988189,25.7472938 Z" id="Path" fill="#FFFFFF" fillRule="nonzero"></path>
                <path d="M28.2859206,43.5097565 C28.2383709,43.8355601 28.1917017,44.1516777 28.1467936,44.4519454 C28.1450325,44.4616315 28.144152,44.4713175 28.1423909,44.4818841 C28.0323221,45.212741 27.9328199,45.8502595 27.8544509,46.2931763 L28.1899406,44.3947097 L28.2859206,43.5097565 Z" id="Path" fill="#FFFFFF" fillRule="nonzero"></path>
                <g transform="translate(3.7203, 46.2932)" fill="#007A3D" fillRule="nonzero" id="Path">
                    <path d="M45.187205,5.58885341 C44.1173363,4.93548501 42.7445582,4.22488083 41.0653486,3.45616033 C39.386139,2.68655928 38.1472045,2.01117712 37.3529481,1.4291333 C36.9998474,1.17025149 36.7295184,0.883192054 36.5322751,0.571477211 C36.416923,0.390083828 36.328868,0.199884941 36.2672294,0 L28.3484397,0 C28.3466786,0.112710452 28.3405147,0.223659802 28.3422758,0.338131355 C28.3422758,0.417380891 28.3475591,0.493988776 28.3493202,0.572357762 C28.3863033,2.06224904 28.76494,3.30910841 29.4957968,4.31029422 C30.2653979,5.36431305 31.1688426,6.19643318 32.2070115,6.80929626 C33.2451805,7.41951769 34.5906615,8.06672224 36.2416935,8.75179045 C37.9490807,9.46151408 39.2065067,10.1034353 40.0201353,10.6722709 C40.8302416,11.2411064 41.2370559,11.9825299 41.2370559,12.893019 C41.2370559,13.7753305 40.9147745,14.4568765 40.277256,14.9411792 C39.6362153,15.4263625 38.7600676,15.6667528 37.6496936,15.6667528 C36.4266091,15.6667528 35.5170005,15.3541574 34.9191068,14.728086 C34.3220936,14.1028952 34.0649729,13.2487614 34.1495057,12.1665649 L26.5494752,12.1665649 C26.49312,12.6764036 26.4649424,13.0612041 26.4649424,13.3174443 C26.4649424,15.907143 27.4810975,17.9086341 29.5178106,19.3166342 C31.5510015,20.7272759 34.1908916,21.4308357 37.4366004,21.4308357 C39.7982366,21.4308357 41.8622467,21.0398713 43.6259892,20.2553009 C45.3897316,19.4733722 46.7440181,18.3850119 47.6826849,16.99022 C48.6213516,15.5954282 49.0933266,14.0157208 49.0933266,12.2519783 C49.0933266,10.6573015 48.7085261,9.31182051 47.938925,8.21729636 C47.1702045,7.12189166 46.2535516,6.24574401 45.187205,5.58885341 Z"></path>
                    <polygon points="96.6685843 0 96.6087069 0.571477211 95.6401014 9.7327236 91.23823 0.571477211 90.9634983 0 77.855625 0 77.7543617 0.571477211 74.1220912 21.130568 81.4218541 21.130568 84.7089487 2.64605396 93.6324465 21.130568 100.934851 21.130568 103.661916 0.571477211 103.737643 0"></polygon>
                    <polygon points="65.1598492 0.571477211 61.5275788 21.130568 68.8273417 21.130568 72.4596121 0.571477211 72.5608754 0 65.260232 0"></polygon>
                    <path d="M23.445535,0 L22.2858501,0 L21.1349708,0 L16.7216521,0 L16.7207716,0.00264165121 L15.9036208,5.0279428 L15.8340573,5.45500974 L15.4844788,7.60355273 L15.4122737,8.04823068 L15.2361636,9.04853594 C14.9235682,10.840456 14.2261723,12.2229201 13.1439759,13.1897645 C12.0617794,14.1592505 10.6669876,14.6409115 8.95960035,14.6409115 C7.68280226,14.6409115 6.68249701,14.3714631 5.95604292,13.8325663 L0,18.9062977 C0.0343414657,18.9362364 0.0669218306,18.9679362 0.102143847,18.9978749 C2.02262428,20.6207293 4.54628173,21.4308357 7.68016061,21.4308357 C10.098152,21.4308357 12.3400333,20.97383 14.404924,20.0642215 C16.4662925,19.1546129 18.2177073,17.7651044 19.6565266,15.9018597 C21.0918238,14.0377345 22.0525043,11.7544673 22.536807,9.04941649 L23.16552,5.49023176 L23.6885669,2.52717966 L24.0337427,0.573238312 L24.135006,0.00176110081 L24.1209172,0.00176110081 L23.445535,0.00176110081 L23.445535,0 Z"></path>
                </g>
                <polygon id="Path" fill="#FF0000" fillRule="nonzero" points="14.9860873 21.0125743 15.0855895 20.441097 15.3902599 18.6993684 23.0668983 18.6993684 17.6603189 14.0932092 8.95607815 13.9179797 7.80431822 20.441097 7.70305492 21.0125743 5.95516237 30.9099608 13.2549252 30.9099608"></polygon>
                <path d="M3.72032545,65.1985935 L9.67636838,60.124862 C9.57686618,60.0508958 9.48176674,59.9725268 9.39283115,59.8888745 C8.65140771,59.1914786 8.28245709,58.1876512 8.28245709,56.8800338 C8.28245709,56.595616 8.33881231,56.0822551 8.45416442,55.3408317 L9.9511001,46.863773 L10.0523634,46.2922958 L11.6135793,37.4533308 L4.31381642,37.4533308 L2.77285322,46.2922958 L2.67335102,46.863773 L1.19578745,55.3408317 C1.02672177,56.3666729 0.939546654,57.3335173 0.939546654,58.2431258 C0.938666729,61.2616526 1.86676685,63.5792613 3.72032545,65.1985935 Z" id="Path" fill="#FF0000" fillRule="nonzero"></path>
                <path d="M31.1239345,31.8495081 L37.0236222,31.8495081 C37.6320826,31.8495081 38.1973959,31.630251 38.63591,31.2613004 L38.0283302,30.7637894 L31.8996994,25.7472938 L31.2181534,25.1899054 L31.1873342,25.1643694 L30.2011177,30.7479395 C30.1879095,30.8192641 30.1843873,30.8897081 30.1879095,30.9610327 C30.1984761,31.1609177 30.2724423,31.3546387 30.4045249,31.5113767 C30.582396,31.7244699 30.8448001,31.8495081 31.1239345,31.8495081 Z" id="Path" fill="#FF0000" fillRule="nonzero"></path>
                <path d="M22.920727,37.4542114 C22.2356588,37.4542114 21.653615,37.9570057 21.5549933,38.63591 L20.9350858,42.9012962 L20.4419776,46.2922958 L20.4419776,46.2931763 L24.8552962,46.2931763 L26.0061756,46.2931763 L27.1658605,46.2931763 L27.8403621,46.2931763 L27.8544509,46.2931763 C27.9328199,45.85114 28.0323221,45.212741 28.1423909,44.4818841 C28.144152,44.4721981 28.1450325,44.462512 28.1467936,44.4519454 C28.1917017,44.1507972 28.2383709,43.8355601 28.2859206,43.5097565 C28.2876817,43.4947871 28.2903233,43.4806983 28.2920844,43.4666095 C28.5139831,41.9406157 28.7508512,40.226184 28.9155141,39.0189494 C29.0291051,38.1903515 28.3845422,37.4542114 27.5480193,37.4542114 L27.5365722,37.4542114 L22.9462629,37.4542114 L22.920727,37.4542114 L22.920727,37.4542114 Z" id="Path" fill="#FF0000" fillRule="nonzero"></path>
            </g>
        </g>
    </g>
</svg>