<?xml version="1.0" encoding="UTF-8"?>
<svg width="153px" height="100px" viewBox="0 0 153 100" version="1.1" xmlns="http://www.w3.org/2000/svg" xmlns:xlink="http://www.w3.org/1999/xlink">
    <title>Final</title>
    <g id="Page-1" stroke="none" strokeWidth="1" fill="none" fillRule="evenodd">
        <g id="Final">
            <rect id="Rectangle" fill="#FFFFFF" fillRule="nonzero" opacity="0" x="0" y="0" width="152.338742" height="100"></rect>
            <g id="Group" transform="translate(2.0499, 4.2255)">
                <path d="M58.2912626,0.225420903 C58.6176533,0.225420903 58.9334774,0.294690868 59.223472,0.421490126 C58.9863104,0.154976871 58.6493531,0.0011740672 58.2912626,0.0011740672 L48.5582455,0.0011740672 C48.1801958,0.0011740672 47.8385423,0.169065677 47.607251,0.439101134 C47.8995938,0.30643154 48.2201141,0.225420903 48.5582455,0.225420903 L58.2912626,0.225420903 Z" id="Path"></path>
                <path d="M27.2547961,61.7277573 L27.2559701,61.7242351 L27.2559701,61.723061 L27.9134478,57.2017282 L26.1617395,68.4281588 C26.1629136,68.4281588 26.1640876,68.4281588 26.1652617,68.4281588 L27.2547961,61.7277573 Z" id="Path"></path>
                <path d="M36.7154296,49.9635785 L30.5973654,49.9635785 C30.5961913,49.9635785 30.5961913,49.9635785 30.5961913,49.9635785 L36.7166037,49.9635785 C36.7166037,49.9635785 36.7154296,49.9635785 36.7154296,49.9635785 Z" id="Path"></path>
                <path d="M39.762134,42.7008242 C40.1965388,43.204499 40.8293611,43.4933196 41.4985794,43.4933196 L49.3648296,43.4933196 C50.3862681,43.4933196 51.379529,43.1410994 52.1638059,42.5012328 C52.9480827,41.8613661 53.4799352,40.9690751 53.6630897,39.9863808 L59.2058609,10.149811 L60.5302087,2.86824618 C60.6558339,2.20489821 60.4726795,1.52980957 60.027708,1.01322 C59.8058093,0.756099279 59.5299035,0.555333787 59.223472,0.421490126 C58.9346514,0.294690868 58.6176533,0.225420903 58.2912626,0.225420903 L48.5582455,0.225420903 C48.2189401,0.225420903 47.8984197,0.30643154 47.607251,0.439101134 C46.9509475,0.738488271 46.4519689,1.33021814 46.313429,2.07222861 L39.2584592,40.8516683 C39.134008,41.5114941 39.3171625,42.1854087 39.762134,42.7008242 Z M40.2681569,40.9984267 L41.5831122,33.5536666 L42.6949539,27.2559701 L42.7759645,27.2559701 L43.8197102,27.2559701 L53.9389955,27.2559701 L54.9005565,27.2559701 L52.6533919,39.7186935 C52.5101557,40.5111889 52.09571,41.194496 51.5157208,41.6829079 C50.9310353,42.1748421 50.1772841,42.4671848 49.3660037,42.4671848 L41.4997534,42.4671848 C41.1287482,42.4671848 40.7777021,42.3004673 40.5405405,42.016343 C40.3644305,41.8073591 40.2658088,41.5490643 40.25172,41.282551 C40.2458497,41.1874516 40.2505459,41.0923521 40.2681569,40.9984267 Z" id="Shape" fill="#000000" fillRule="nonzero"></path>
                <path d="M7.9402165,42.4648367 L17.6744077,42.4648367 C18.2825745,42.4648367 18.8015122,42.0280837 18.9071782,41.4293094 L21.5723108,26.1840468 L32.7024679,26.1840468 C33.3059384,26.1840468 33.8237021,25.7531641 33.9328903,25.1602602 L35.2995045,17.7601146 C35.3676004,17.3949797 35.2689788,17.0181041 35.0306432,16.7328058 C34.7934816,16.4475075 34.4400874,16.281964 34.0690821,16.281964 L23.3721558,16.281964 L24.4217719,10.1885552 L39.6482495,10.1885552 C40.2540681,10.1885552 40.7741799,9.75415033 40.879846,9.15655012 L42.2464602,1.47228027 C42.3110339,1.10831944 42.2112382,0.733792002 41.9740766,0.449667739 C41.735741,0.165543476 41.3846949,0.00234813441 41.0148637,0.00234813441 L14.9987085,0.00234813441 C14.3917158,0.00234813441 13.8727781,0.437927067 13.767112,1.03552727 L6.70744593,40.9960786 C6.64287224,41.3600394 6.74384202,41.7345669 6.98100359,42.0175171 C7.21933923,42.3004673 7.57038533,42.4648367 7.9402165,42.4648367 Z M10.2707399,28.0167657 L10.4057576,27.2547961 L11.9414375,18.5584803 L23.5470918,18.7921197 L30.7558645,24.9336652 L20.5203466,24.9336652 L20.1141193,27.2559701 L19.9802757,28.0179397 L17.6732336,41.2144551 L7.9402165,41.2144551 L10.2707399,28.0167657 Z" id="Shape" fill="#000000" fillRule="nonzero"></path>
                <path d="M62.054148,42.4648367 L84.5398831,42.4648367 C85.1468758,42.4648367 85.6658135,42.0292578 85.7714796,41.4316575 L87.0805645,34.031512 C87.1451382,33.6675511 87.0453425,33.2930237 86.8070068,33.0100735 C86.5686712,32.7271233 86.2176251,32.5627539 85.8477939,32.5627539 L74.5873154,32.5627539 L80.0784277,1.46875807 C80.1430014,1.10479724 80.0420316,0.730269801 79.80487,0.447319605 C79.5665344,0.164369409 79.2154883,2.36847579e-15 78.8456571,2.36847579e-15 L69.1114659,2.36847579e-15 C68.5044732,2.36847579e-15 67.9855355,0.435578933 67.8798694,1.03317914 L60.8213774,40.9949045 C60.7568037,41.3588654 60.8577735,41.7333928 61.0949351,42.016343 C61.3332707,42.3004673 61.6843168,42.4648367 62.054148,42.4648367 Z M64.3858454,28.0167657 L64.5208632,27.2547961 L68.2050861,27.2547961 L74.2562284,27.2547961 L74.1212107,28.0167657 L73.0974241,33.8131355 L85.848968,33.8131355 L84.5398831,41.213281 L62.054148,41.213281 L64.3858454,28.0167657 Z" id="Shape" fill="#000000" fillRule="nonzero"></path>
                <path d="M89.2068002,42.4648367 L134.543405,42.4648367 L131.895884,70.596661 L121.710851,49.3977035 C121.503041,48.9644727 121.06394,48.6885669 120.583746,48.6885669 L110.850729,48.6885669 C110.243736,48.6885669 109.724799,49.1241459 109.619133,49.7217461 L102.559467,89.6799493 C102.494893,90.0439101 102.595863,90.4184376 102.833024,90.7013877 C103.07136,90.9843379 103.422406,91.1487074 103.792237,91.1487074 L113.525254,91.1487074 C114.131073,91.1487074 114.651185,90.7143025 114.756851,90.1167023 L118.462207,69.2781835 L128.677766,90.4407448 C128.886749,90.8728016 129.324677,91.1487074 129.80487,91.1487074 L139.542583,91.1487074 C140.153098,91.1487074 140.674384,90.7084322 140.776528,90.1061357 L148.18724,34.2217109 L148.221288,34.031512 C148.285862,33.6675511 148.186066,33.2930237 147.947731,33.0100735 C147.710569,32.7259492 147.359523,32.5627539 146.988518,32.5627539 L101.742316,32.5627539 L107.232254,1.46875807 C107.296828,1.10479724 107.195858,0.730269801 106.958696,0.447319605 C106.720361,0.164369409 106.369315,9.47390314e-15 105.999483,9.47390314e-15 L96.2664663,9.47390314e-15 C95.6594735,9.47390314e-15 95.1405358,0.435578933 95.0348698,1.03317914 L87.9763778,40.9949045 C87.9118041,41.3588654 88.0127739,41.7333928 88.2499354,42.016343 C88.4859229,42.3004673 88.836969,42.4648367 89.2068002,42.4648367 Z M91.5384977,28.0167657 L91.6735154,27.2547961 L101.408881,27.2547961 L101.273863,28.0167657 L100.250076,33.8131355 L146.986169,33.8131355 L146.952122,34.0045084 L143.276117,61.7254092 L143.175147,62.4873788 L139.540235,89.8983258 L129.802522,89.8983258 L117.905699,65.252307 L113.522906,89.8983258 L103.789889,89.8983258 L108.632916,62.4873788 L108.767934,61.7254092 L110.849555,49.9401226 L120.582572,49.9401226 L126.245098,61.7254092 L126.611407,62.4873788 L132.480569,74.702374 L133.772043,62.4873788 L133.853054,61.7254092 L136.020382,41.2144551 L89.2068002,41.2144551 L91.5384977,28.0167657 Z" id="Shape" fill="#000000" fillRule="nonzero"></path>
                <path d="M4.28886749,88.0092516 C7.06788457,90.3585601 10.7391927,91.5490643 15.2006481,91.5490643 C18.5819616,91.5490643 21.76838,90.8998051 24.6718482,89.6200719 C27.5999718,88.3262498 30.11952,86.3315096 32.1588748,83.6886843 C34.1876629,81.0540775 35.5613215,77.7972151 36.2399324,74.0061521 L38.8170099,59.4101486 C38.8498838,59.2269942 38.835795,59.0450137 38.7900063,58.8724259 L39.745697,52.183765 C40.0098622,50.3381314 38.5775002,48.6873929 36.7130815,48.6873929 L30.5950173,48.6873929 C29.0851668,48.6873929 27.8007373,49.7874938 27.568272,51.2785592 L24.4734309,71.1155987 L24.0402001,73.5729213 C23.6738911,75.6698053 22.8696551,77.2864959 21.6486252,78.3772043 C20.4346397,79.4643905 18.8825228,79.9927208 16.9042196,79.9927208 C15.3074882,79.9927208 14.1216803,79.6381525 13.3784958,78.9395825 C12.6470519,78.2515791 12.2924836,77.2371851 12.2924836,75.838871 C12.2924836,75.6580647 12.3206612,75.175523 12.5026417,74.004978 L16.7151948,50.1561509 C16.7797685,49.7921901 16.6787987,49.4176627 16.4416371,49.1347125 C16.2033015,48.8517623 15.8522554,48.6873929 15.4824242,48.6873929 L5.7494071,48.6873929 C5.14124028,48.6873929 4.62112851,49.1253199 4.51663653,49.7229201 L0.359264564,73.584662 C0.120928922,75.0275906 -2.36847579e-15,76.3989011 -2.36847579e-15,77.6586752 C0.0011740672,82.1260009 1.44410266,85.6082842 4.28886749,88.0092516 Z M1.59438326,73.7889497 L3.56446803,62.4862047 L3.69713762,61.7242351 L5.75175523,49.9389485 L15.4847723,49.9389485 L13.4031512,61.7242351 L13.2681335,62.4862047 L11.2722192,73.7889497 C11.1184164,74.7775143 11.0432761,75.4608214 11.0432761,75.8412192 C11.0432761,77.5847089 11.5352103,78.9231456 12.5237749,79.8530068 C12.6423556,79.9645432 12.7691549,80.0690352 12.9018245,80.1676568 C13.871604,80.88736 15.2041703,81.2454505 16.9065677,81.2454505 C19.183084,81.2454505 21.0428065,80.6032357 22.4857351,79.3105877 C23.9286637,78.022636 24.8585249,76.1793505 25.2753188,73.7889497 L25.5101322,72.4552093 L25.6064057,71.8623054 L26.0725104,68.9975814 L26.1652617,68.4281588 C26.1640876,68.4281588 26.1629136,68.4281588 26.1617395,68.4281588 L27.9134478,57.2017282 L28.7399911,51.5145467 C28.8714866,50.6105149 29.646371,49.9389485 30.5609693,49.9389485 L30.5961913,49.9389485 C30.5973654,49.9389485 30.5973654,49.9389485 30.5973654,49.9389485 L36.7154296,49.9389485 C36.7154296,49.9389485 36.7166037,49.9389485 36.7166037,49.9389485 L36.7318665,49.9389485 C37.8472304,49.9389485 38.7066476,50.9204687 38.5551929,52.0252659 C38.3356423,53.633738 38.0198183,55.9196468 37.7239533,57.9554794 C37.7216052,57.9742644 37.718083,57.9942236 37.7157348,58.0130087 L37.5877615,59.1929462 L37.1404419,61.7242351 L37.0054242,62.4862047 L36.5451898,65.0914598 L35.8477939,69.042196 L35.0095099,73.7877756 C34.3625989,77.3945101 33.0828657,80.4388663 31.1691361,82.9243666 C29.2507103,85.4098669 26.9154906,87.2613708 24.1669993,88.4741823 C21.4149858,89.6881678 18.4246366,90.2963346 15.2006481,90.2963346 C11.0221429,90.2963346 7.6572663,89.2161927 5.09662573,87.0523869 C5.04966304,87.0124686 5.00622256,86.9702022 4.96043394,86.9302839 C2.48902247,84.7711743 1.25155564,81.6810294 1.25155564,77.6575011 C1.25155564,76.4446897 1.36896236,75.156738 1.59438326,73.7889497 Z" id="Shape" fill="#000000" fillRule="nonzero"></path>
                <path d="M60.8953436,62.0975885 C61.1325052,62.3993237 61.495292,62.5754338 61.8780379,62.5754338 L72.2368328,62.5754338 C72.8602625,62.5754338 73.3885928,62.1163735 73.4754737,61.4999883 C73.5224364,61.1653791 73.5459178,60.6969263 73.5459178,60.0688003 C73.5459178,57.6056073 72.8720032,55.433583 71.5417851,53.6149529 C70.230352,51.816282 68.3811961,50.4273605 66.0436283,49.4881067 C63.7858971,48.5782046 61.1771198,48.1179703 58.2900885,48.1179703 C55.0954517,48.1179703 52.2084204,48.6709559 49.7111795,49.7604903 C47.1493648,50.8711579 45.1123582,52.5125038 43.6553408,54.6375655 C42.1818865,56.7849344 41.4551389,59.3267899 41.4962312,62.1750769 C41.4962312,64.5607815 42.0950055,66.5907437 43.2761171,68.2097823 C44.3973513,69.7442882 45.7393101,70.9794069 47.2679456,71.8822645 C48.6944373,72.7205485 50.5565079,73.6175359 52.8013243,74.5485712 C54.9710005,75.4502548 56.586517,76.2674055 57.599737,76.9777162 C58.3440956,77.5001761 58.6904454,78.1153873 58.6904454,78.9149271 C58.6904454,79.6909855 58.4403691,80.2427971 57.9061685,80.6490244 C57.2792167,81.1233475 56.3540517,81.3628572 55.1576772,81.3628572 C53.8896846,81.3628572 52.969216,81.0716885 52.4221006,80.4987437 C51.8785075,79.9293212 51.6542607,79.1262592 51.7387935,78.0449433 C51.7657971,77.6974194 51.6460422,77.3534177 51.4100547,77.0986451 C51.1728931,76.8426985 50.8406321,76.6971141 50.4919342,76.6971141 L40.3585601,76.6971141 C39.7210416,76.6971141 39.1844929,77.1773076 39.115223,77.8113039 C39.0342123,78.5439219 38.9954681,79.0910372 38.9954681,79.4831756 C38.9954681,83.3587715 40.5464109,86.3960833 43.6036819,88.5094043 C46.5130204,90.5276258 50.3052575,91.5514124 54.8759011,91.5514124 C58.1902928,91.5514124 61.1383756,90.9878601 63.6356165,89.8760185 C66.1997793,88.7395215 68.1980417,87.125179 69.5752225,85.0776058 C70.964144,83.0124216 71.6685843,80.6513725 71.6685843,78.0613802 C71.6685843,75.681546 71.0745063,73.6304506 69.9027872,71.9632752 C68.7827271,70.3688919 67.4243314,69.0738958 65.8616479,68.1123348 C64.4034565,67.2212177 62.5096861,66.2396976 60.2343438,65.1983 C58.0775824,64.2109094 56.4855472,63.3444478 55.502853,62.6235706 C54.5295513,61.9109118 54.4168408,61.215864 54.4168408,60.7556297 C54.4168408,59.9995304 54.6633949,59.4712001 55.2199028,59.0403175 C55.8433325,58.5542536 56.7039237,58.3076995 57.7781952,58.3076995 C58.7444525,58.3076995 59.486463,58.5354686 59.9889638,58.9863104 C60.4632869,59.4101486 60.6851856,59.9373048 60.6851856,60.6429192 C60.6851856,60.9282175 60.6628783,61.0291873 60.6617043,61.0327095 C60.5713011,61.4025407 60.657008,61.7958532 60.8953436,62.0975885 Z M57.7781952,57.0537958 C56.4151032,57.0537958 55.3009134,57.3872308 54.4508888,58.0505788 C53.5961678,58.7139268 53.1664592,59.6144363 53.1664592,60.7532815 C53.1664592,61.093761 53.2204663,61.4166295 53.3155658,61.7254092 C53.3977505,61.9919224 53.5163313,62.2455209 53.66896,62.4873788 C53.9319511,62.9029986 54.2923897,63.2857445 54.7631906,63.6309202 C55.8221993,64.4069787 57.4741118,65.3074882 59.713058,66.3336229 C61.9520041,67.3597577 63.783549,68.3060558 65.2088666,69.1772137 C66.6306619,70.0530678 67.8528659,71.2200906 68.8790006,72.6806302 C69.9051354,74.1399958 70.4182027,75.9339705 70.4182027,78.0602062 C70.4182027,80.4118628 69.7889027,82.5181393 68.5373471,84.3778618 C67.2857914,86.2375842 65.4812501,87.6887313 63.1284195,88.731303 C60.7767629,89.7773969 58.0235753,90.2986827 54.8759011,90.2986827 C50.5471153,90.2986827 47.0272618,89.360603 44.3175147,87.4797473 C41.6030714,85.6035879 40.2470237,82.9337591 40.2470237,79.4808275 C40.2470237,79.1391739 40.2845939,78.6261066 40.3597342,77.9463216 L50.4931082,77.9463216 C50.3803978,79.3892502 50.7220513,80.5280954 51.519243,81.3616831 C52.3152605,82.1952709 53.529246,82.6132388 55.1600254,82.6132388 C56.6405241,82.6132388 57.8075469,82.2915444 58.6634419,81.6458074 C59.5146406,81.0000704 59.9431751,80.0901684 59.9431751,78.9149271 C59.9431751,77.7009416 59.4007561,76.712377 58.3206143,75.9539296 C57.2369502,75.1954822 55.5603823,74.3395872 53.2826919,73.393289 C51.0813159,72.4798647 49.2873412,71.6169254 47.903116,70.8032968 C46.5188907,69.986146 45.3131237,68.8766525 44.2881631,67.4712941 C43.3136873,66.1363796 42.8076643,64.4727264 42.7595276,62.4873788 C42.7571794,62.3828868 42.750135,62.281917 42.750135,62.1750769 C42.7477869,62.0224482 42.7560054,61.8745157 42.7583535,61.7242351 C42.7982718,59.2997863 43.4369643,57.1700284 44.68852,55.3443539 C46.0140418,53.4094912 47.8538052,51.9289924 50.210158,50.9075539 C52.5618146,49.8814192 55.2562989,49.3683518 58.2924367,49.3683518 C61.024491,49.3683518 63.4548102,49.7933642 65.5775237,50.6480851 C67.7037594,51.502806 69.3556719,52.7379247 70.5320873,54.3510931 C71.7085026,55.9607392 72.2955362,57.8709465 72.2955362,60.0688003 C72.2955362,60.639397 72.274403,61.0573649 72.2368328,61.3238782 L61.8780379,61.3238782 C61.915608,61.1700754 61.9367413,60.9446545 61.9367413,60.639397 C61.9367413,59.5756921 61.565736,58.7127527 60.8237256,58.0494047 C60.0852373,57.3872308 59.067321,57.0537958 57.7781952,57.0537958 Z" id="Shape" fill="#000000" fillRule="nonzero"></path>
                <path d="M104.749102,49.1347125 C104.510766,48.8517623 104.15972,48.6873929 103.789889,48.6873929 L94.0568718,48.6873929 C93.4498791,48.6873929 92.9309414,49.1229718 92.8252753,49.720572 L85.7644352,89.6787752 C85.6998615,90.042736 85.8008312,90.4172635 86.0379928,90.7002137 C86.2763285,90.9831639 86.6273746,91.1475333 86.9972057,91.1475333 L96.7302228,91.1475333 C97.3372156,91.1475333 97.8561533,90.7119544 97.9618193,90.1143541 L105.022659,50.1561509 C105.086059,49.7921901 104.986263,49.4188367 104.749102,49.1347125 Z M101.708268,61.7242351 L101.57325,62.4862047 L96.7302228,89.8971517 L86.9972057,89.8971517 L91.8402329,62.4862047 L91.9752507,61.7242351 L94.0568718,49.9389485 L103.789889,49.9389485 L101.708268,61.7242351 Z" id="Shape" fill="#000000" fillRule="nonzero"></path>
                <polygon id="Path" fill="#FFFFFF" fillRule="nonzero" points="85.848968 33.8131355 73.0974241 33.8131355 74.1212107 28.0167657 74.2562284 27.2547961 68.203912 27.2547961 64.5196891 27.2547961 64.3858454 28.0167657 62.054148 41.213281 84.5398831 41.213281"></polygon>
                <polygon id="Path" fill="#FFFFFF" fillRule="nonzero" points="108.767934 61.7242351 126.245098 61.7242351 120.583746 49.9389485 110.849555 49.9389485"></polygon>
                <polygon id="Path" fill="#FFFFFF" fillRule="nonzero" points="133.85188 61.7242351 143.277291 61.7242351 146.953296 34.0033344 146.987344 33.8131355 100.250076 33.8131355 101.273863 28.0167657 101.408881 27.2547961 91.6735154 27.2547961 91.5384977 28.0167657 89.2068002 41.213281 136.020382 41.213281"></polygon>
                <path d="M44.68852,55.3443539 C43.4357903,57.1700284 42.7970977,59.2997863 42.7583535,61.7242351 L53.3167399,61.7242351 C53.2216404,61.4154554 53.1676333,61.093761 53.1676333,60.7521075 C53.1676333,59.6132623 53.5973419,58.7127527 54.4520628,58.0494047 C55.3032616,57.3860568 56.4162773,57.0526217 57.7793693,57.0526217 C59.0684951,57.0526217 60.0852373,57.3860568 60.8237256,58.0494047 C61.565736,58.7127527 61.9367413,59.5756921 61.9367413,60.639397 C61.9367413,60.9434804 61.915608,61.1689013 61.8780379,61.3238782 L72.2368328,61.3238782 C72.274403,61.0573649 72.2955362,60.639397 72.2955362,60.0688003 C72.2955362,57.8709465 71.7073285,55.9607392 70.5320873,54.3510931 C69.3556719,52.7367507 67.7049334,51.502806 65.5775237,50.6480851 C63.4548102,49.7933642 61.023317,49.3683518 58.2924367,49.3683518 C55.2562989,49.3683518 52.5629887,49.8814192 50.210158,50.9075539 C47.8538052,51.9289924 46.0140418,53.4083171 44.68852,55.3443539 Z" id="Path" fill="#FFFFFF" fillRule="nonzero"></path>
                <polygon id="Path" fill="#FFFFFF" fillRule="nonzero" points="101.708268 61.7242351 103.789889 49.9389485 94.0568718 49.9389485 91.9740766 61.7242351"></polygon>
                <path d="M42.5317585,34.329725 L50.7032663,41.0183859 L51.5133726,41.6817339 C52.0933618,41.194496 52.5089816,40.5100148 52.6510437,39.7175194 L54.8982084,27.2547961 L53.9366473,27.2547961 L43.8173621,27.2547961 L42.7736164,27.2547961 L42.6926057,27.2547961 L41.5807641,33.5524925 L41.6218564,33.5865405 L42.5317585,34.329725 Z" id="Path" fill="#FFFFFF" fillRule="nonzero"></path>
                <path d="M37.7145608,58.0130087 C37.6511612,58.4474135 37.5889356,58.8689037 37.5290582,59.2692606 C37.52671,59.2821753 37.525536,59.2950901 37.5231878,59.3091789 C37.3764294,60.2836546 37.2437598,61.1336793 37.1392679,61.7242351 L37.5865875,59.1929462 L37.7145608,58.0130087 Z" id="Path" fill="#FFFFFF" fillRule="nonzero"></path>
                <g transform="translate(4.9604, 61.7242)" fill="#007A3D" fillRule="nonzero" id="Path">
                    <path d="M60.2496067,7.45180454 C58.823115,6.58064668 56.9927443,5.63317444 54.7537981,4.60821377 C52.514852,3.58207904 50.8629394,2.68156949 49.8039308,1.90551107 C49.3331298,1.56033531 48.9726912,1.17758941 48.7097001,0.761969615 C48.5558973,0.520111771 48.4384906,0.266513255 48.3563059,0 L37.7979196,0 C37.7955714,0.150280602 37.7873529,0.29821307 37.7897011,0.450841806 C37.7897011,0.556507855 37.7967455,0.658651701 37.7990936,0.763143682 C37.8484044,2.74966539 38.3532533,4.41214455 39.3277291,5.74705896 C40.3538639,7.1524174 41.5584568,8.26191091 42.942682,9.07906169 C44.3269073,9.89269026 46.120882,10.7556297 48.322258,11.6690539 C50.5987743,12.6153521 52.2753422,13.4712471 53.3601803,14.2296945 C54.4403222,14.9881419 54.9827412,15.9767065 54.9827412,17.190692 C54.9827412,18.3671073 54.5530326,19.2758353 53.703008,19.9215723 C52.848287,20.5684833 51.6800902,20.8890037 50.1995914,20.8890037 C48.5688121,20.8890037 47.3560007,20.4722098 46.558809,19.637448 C45.7627915,18.8038603 45.4199638,17.6650151 45.5326743,16.2220866 L35.3993003,16.2220866 C35.32416,16.9018715 35.2865898,17.4149388 35.2865898,17.7565924 C35.2865898,21.209524 36.6414634,23.8781788 39.3570808,25.7555122 C42.068002,27.6363679 45.5878554,28.5744476 49.9154672,28.5744476 C53.0643154,28.5744476 55.8163289,28.0531618 58.1679855,27.0070679 C60.5196421,25.9644962 62.3253575,24.5133491 63.5769131,22.6536267 C64.8284688,20.7939042 65.4577688,18.6876277 65.4577688,16.3359711 C65.4577688,14.2097354 64.9447014,12.4157607 63.9185667,10.9563951 C62.893606,9.49585554 61.6714021,8.32765868 60.2496067,7.45180454 Z"></path>
                    <polygon points="128.891446 0 128.811609 0.761969615 127.520135 12.9769648 121.650973 0.761969615 121.284664 0 103.8075 0 103.672482 0.761969615 98.829455 28.1740907 108.562472 28.1740907 112.945265 3.52807195 124.843262 28.1740907 134.579801 28.1740907 138.215887 0.761969615 138.316857 0"></polygon>
                    <polygon points="86.879799 0.761969615 82.0367718 28.1740907 91.7697889 28.1740907 96.6128161 0.761969615 96.7478338 0 87.0136427 0"></polygon>
                    <path d="M31.2607134,0 L29.7144669,0 L28.179961,0 L22.2955362,0 L22.2943621,0.00352220161 L21.2048278,6.70392373 L21.1120765,7.27334633 L20.6459718,10.1380703 L20.5496983,10.7309742 L20.3148848,12.0647146 C19.898091,14.4539413 18.9682297,16.2972269 17.5253011,17.5863526 C16.0823726,18.8790006 14.2226501,19.5212154 11.9461338,19.5212154 C10.2437364,19.5212154 8.90999601,19.1619508 7.94139057,18.4434217 L0,25.2083969 C0.0457886209,25.2483152 0.0892291075,25.2905816 0.136191796,25.3304999 C2.69683237,27.4943058 6.06170897,28.5744476 10.2402141,28.5744476 C13.4642027,28.5744476 16.4533778,27.9651067 19.2065654,26.7522953 C21.9550567,25.5394839 24.2902764,23.6868058 26.2087022,21.2024796 C28.1224317,18.7169794 29.403339,15.6726231 30.049076,12.0658887 L30.88736,7.32030901 L31.5847559,3.36957287 L32.0449903,0.76431775 L32.180008,0.00234813441 L32.1612229,0.00234813441 L31.2607134,0.00234813441 L31.2607134,0 Z"></path>
                </g>
                <polygon id="Path" fill="#FF0000" fillRule="nonzero" points="19.9814497 28.0167657 20.1141193 27.2547961 20.5203466 24.9324911 30.7558645 24.9324911 23.5470918 18.7909456 11.9414375 18.5573062 10.4057576 27.2547961 10.2707399 28.0167657 7.9402165 41.213281 17.6732336 41.213281"></polygon>
                <path d="M4.96043394,86.931458 L12.9018245,80.1664827 C12.7691549,80.0678611 12.6423556,79.9633691 12.5237749,79.8518327 C11.5352103,78.9219715 11.0432761,77.5835349 11.0432761,75.8400451 C11.0432761,75.4608214 11.1184164,74.7763402 11.2722192,73.7877756 L13.2681335,62.4850306 L13.4031512,61.723061 L15.4847723,49.9377744 L5.75175523,49.9377744 L3.69713762,61.723061 L3.56446803,62.4850306 L1.59438326,73.7877756 C1.36896236,75.1555639 1.25272887,76.4446897 1.25272887,77.6575011 C1.25155564,81.6822035 2.48902247,84.7723484 4.96043394,86.931458 Z" id="Path" fill="#FF0000" fillRule="nonzero"></path>
                <path d="M41.4985794,42.4660108 L49.3648296,42.4660108 C50.1761101,42.4660108 50.9298612,42.173668 51.5145467,41.6817339 L50.7044403,41.0183859 L42.5329326,34.329725 L41.6242046,33.5865405 L41.5831122,33.5524925 L40.2681569,40.9972527 C40.2505459,41.0923521 40.2458497,41.1862775 40.2505459,41.2813769 C40.2646347,41.5478902 40.3632564,41.806185 40.5393665,42.0151689 C40.776528,42.2992932 41.1264001,42.4660108 41.4985794,42.4660108 Z" id="Path" fill="#FF0000" fillRule="nonzero"></path>
                <path d="M30.5609693,49.9389485 C29.647545,49.9389485 28.8714866,50.6093409 28.7399911,51.5145467 L27.9134478,57.2017282 L27.2559701,61.723061 L27.2559701,61.7242351 L33.140395,61.7242351 L34.6749008,61.7242351 L36.2211473,61.7242351 L37.1204828,61.7242351 L37.1392679,61.7242351 C37.2437598,61.1348534 37.3764294,60.2836546 37.5231878,59.3091789 C37.525536,59.2962641 37.52671,59.2833494 37.5290582,59.2692606 C37.5889356,58.8677296 37.6511612,58.4474135 37.7145608,58.0130087 C37.7169089,57.9930495 37.7204311,57.9742644 37.7227793,57.9554794 C38.0186442,55.9208209 38.3344683,53.6349121 38.5540188,52.0252659 C38.7054735,50.9204687 37.8460563,49.9389485 36.7306925,49.9389485 L36.7154296,49.9389485 L30.5950173,49.9389485 L30.5609693,49.9389485 L30.5609693,49.9389485 Z" id="Path" fill="#FF0000" fillRule="nonzero"></path>
            </g>
        </g>
    </g>
</svg>