<?xml version="1.0" encoding="UTF-8"?>
<svg width="229px" height="150px" viewBox="0 0 229 150" version="1.1" xmlns="http://www.w3.org/2000/svg" xmlns:xlink="http://www.w3.org/1999/xlink">
    <title>Final</title>
    <g id="Page-1" stroke="none" strokeWidth="1" fill="none" fillRule="evenodd">
        <g id="Final">
            <rect id="Rectangle" fill="#FFFFFF" fillRule="nonzero" opacity="0" x="0" y="0" width="228.508113" height="150"></rect>
            <g id="Group" transform="translate(3.0749, 6.3382)">
                <path d="M87.4368939,0.338131355 C87.9264799,0.338131355 88.400216,0.442036302 88.8352079,0.632235189 C88.4794656,0.232465306 87.9740296,0.00176110081 87.4368939,0.00176110081 L72.8373682,0.00176110081 C72.2702938,0.00176110081 71.7578134,0.253598516 71.4108766,0.658651701 C71.8493907,0.45964731 72.3301712,0.338131355 72.8373682,0.338131355 L87.4368939,0.338131355 Z" id="Path"></path>
                <path d="M40.8821941,92.5916359 L40.8839552,92.5863526 L40.8839552,92.5845915 L41.8701716,85.8025923 L39.2426092,102.642238 C39.2443703,102.642238 39.2461314,102.642238 39.2478925,102.642238 L40.8821941,92.5916359 Z" id="Path"></path>
                <path d="M55.0731444,74.9453677 L45.8960481,74.9453677 C45.894287,74.9453677 45.894287,74.9453677 45.894287,74.9453677 L55.0749055,74.9453677 C55.0749055,74.9453677 55.0731444,74.9453677 55.0731444,74.9453677 Z" id="Path"></path>
                <path d="M59.643201,64.0512363 C60.2948083,64.8067485 61.2440416,65.2399793 62.2478691,65.2399793 L74.0472445,65.2399793 C75.5794022,65.2399793 77.0692934,64.7116491 78.2457088,63.7518492 C79.4221241,62.7920492 80.2199028,61.4536126 80.4946345,59.9795712 L88.8087914,15.2247165 L90.7953131,4.30236927 C90.9837509,3.30734731 90.7090192,2.29471435 90.041562,1.51983 C89.7087139,1.13414892 89.2948552,0.833000681 88.8352079,0.632235189 C88.4019771,0.442036302 87.9264799,0.338131355 87.4368939,0.338131355 L72.8373682,0.338131355 C72.3284101,0.338131355 71.8476296,0.45964731 71.4108766,0.658651701 C70.4264212,1.10773241 69.6779534,1.99532721 69.4701435,3.10834292 L58.8876887,61.2775025 C58.701012,62.2672412 58.9757438,63.278113 59.643201,64.0512363 Z M60.4022354,61.4976401 L62.3746683,50.3304999 L64.0424308,40.8839552 L64.1639467,40.8839552 L65.7295654,40.8839552 L80.9084932,40.8839552 L82.3508348,40.8839552 L78.9800878,59.5780402 C78.7652335,60.7667833 78.1435649,61.791744 77.2735811,62.5243619 C76.3965529,63.2622631 75.2659262,63.7007772 74.0490056,63.7007772 L62.2496302,63.7007772 C61.6931223,63.7007772 61.1665532,63.4507009 60.8108108,63.0245145 C60.5466457,62.7110386 60.3987132,62.3235964 60.37758,61.9238265 C60.3687745,61.7811774 60.3758189,61.6385282 60.4022354,61.4976401 Z" id="Shape" fill="#000000" fillRule="nonzero"></path>
                <path d="M11.9103247,63.697255 L26.5116115,63.697255 C27.4238617,63.697255 28.2022683,63.0421255 28.3607674,62.1439641 L32.3584662,39.2760702 L49.0537018,39.2760702 C49.9589076,39.2760702 50.7355531,38.6297462 50.8993355,37.7403903 L52.9492568,26.6401719 C53.0514007,26.0924695 52.9034682,25.5271562 52.5459647,25.0992087 C52.1902224,24.6712612 51.660131,24.422946 51.1036232,24.422946 L35.0582337,24.422946 L36.6326579,15.2828328 L59.4723742,15.2828328 C60.3811022,15.2828328 61.1612699,14.6312255 61.3197689,13.7348252 L63.3696903,2.20842041 C63.4665508,1.66247916 63.3168573,1.100688 62.9611149,0.674501608 C62.6036114,0.248315214 62.0770423,0.00352220161 61.5222955,0.00352220161 L22.4980628,0.00352220161 C21.5875737,0.00352220161 20.8091671,0.6568906 20.650668,1.55329091 L10.0611689,61.4941179 C9.96430836,62.0400592 10.115763,62.6018503 10.4715054,63.0262756 C10.8290089,63.4507009 11.355578,63.697255 11.9103247,63.697255 Z M15.4061098,42.0251485 L15.6086364,40.8821941 L17.9121563,27.8377204 L35.3206378,28.1881795 L46.1337967,37.4004978 L30.7805199,37.4004978 L30.171179,40.8839552 L29.9704135,42.0269096 L26.5098504,61.8216827 L11.9103247,61.8216827 L15.4061098,42.0251485 Z" id="Shape" fill="#000000" fillRule="nonzero"></path>
                <path d="M93.081222,63.697255 L126.809825,63.697255 C127.720314,63.697255 128.49872,63.0438866 128.657219,62.1474863 L130.620847,51.0472679 C130.717707,50.5013267 130.568014,49.9395355 130.21051,49.5151102 C129.853007,49.090685 129.326438,48.8441308 128.771691,48.8441308 L111.880973,48.8441308 L120.117642,2.20313711 C120.214502,1.65719586 120.063047,1.0954047 119.707305,0.670979407 C119.349802,0.246554113 118.823232,4.4408921e-15 118.268486,4.4408921e-15 L103.667199,4.4408921e-15 C102.75671,4.4408921e-15 101.978303,0.653368399 101.819804,1.54976871 L91.2320661,61.4923568 C91.1352056,62.0382981 91.2866602,62.6000892 91.6424026,63.0245145 C91.9999061,63.4507009 92.5264752,63.697255 93.081222,63.697255 Z M96.5787682,42.0251485 L96.7812948,40.8821941 L102.307629,40.8821941 L111.384343,40.8821941 L111.181816,42.0251485 L109.646136,50.7197032 L128.773452,50.7197032 L126.809825,61.8199216 L93.081222,61.8199216 L96.5787682,42.0251485 Z" id="Shape" fill="#000000" fillRule="nonzero"></path>
                <path d="M133.8102,63.697255 L201.815108,63.697255 L197.843826,105.894991 L182.566276,74.0965553 C182.254561,73.4467091 181.59591,73.0328504 180.875619,73.0328504 L166.276094,73.0328504 C165.365605,73.0328504 164.587198,73.6862188 164.428699,74.5826191 L153.8392,134.519924 C153.742339,135.065865 153.893794,135.627656 154.249536,136.052082 C154.60704,136.476507 155.133609,136.723061 155.688356,136.723061 L170.287881,136.723061 C171.196609,136.723061 171.976777,136.071454 172.135276,135.175053 L177.69331,103.917275 L193.016648,135.661117 C193.330124,136.309202 193.987015,136.723061 194.707305,136.723061 L209.313875,136.723061 C210.229648,136.723061 211.011576,136.062648 211.164792,135.159204 L222.28086,51.3325663 L222.331932,51.0472679 C222.428793,50.5013267 222.279099,49.9395355 221.921596,49.5151102 C221.565853,49.0889239 221.039284,48.8441308 220.482776,48.8441308 L152.613474,48.8441308 L160.848381,2.20313711 C160.945242,1.65719586 160.793787,1.0954047 160.438044,0.670979407 C160.080541,0.246554113 159.553972,8.8817842e-15 158.999225,8.8817842e-15 L144.399699,8.8817842e-15 C143.48921,8.8817842e-15 142.710804,0.653368399 142.552305,1.54976871 L131.964567,61.4923568 C131.867706,62.0382981 132.019161,62.6000892 132.374903,63.0245145 C132.728884,63.4507009 133.255454,63.697255 133.8102,63.697255 Z M137.307746,42.0251485 L137.510273,40.8821941 L152.113321,40.8821941 L151.910794,42.0251485 L150.375114,50.7197032 L220.479254,50.7197032 L220.428182,51.0067626 L214.914176,92.5881137 L214.762721,93.7310682 L209.310353,134.847489 L194.703783,134.847489 L176.858548,97.8784606 L170.284359,134.847489 L155.684833,134.847489 L162.949374,93.7310682 L163.151901,92.5881137 L166.274333,74.9101839 L180.873858,74.9101839 L189.367647,92.5881137 L189.917111,93.7310682 L198.720854,112.053561 L200.658065,93.7310682 L200.779581,92.5881137 L204.030573,61.8216827 L133.8102,61.8216827 L137.307746,42.0251485 Z" id="Shape" fill="#000000" fillRule="nonzero"></path>
                <path d="M6.43330124,132.013877 C10.6018268,135.53784 16.1087891,137.323596 22.8009721,137.323596 C27.8729424,137.323596 32.65257,136.349708 37.0077723,134.430108 C41.3999577,132.489375 45.1792801,129.497264 48.2383122,125.533027 C51.2814944,121.581116 53.3419823,116.695823 54.3598986,111.009228 L58.2255148,89.115223 C58.2748257,88.8404912 58.2536924,88.5675206 58.1850095,88.3086388 L59.6185456,78.2756475 C60.0147932,75.507197 57.8662503,73.0310893 55.0696222,73.0310893 L45.8925259,73.0310893 C43.6277503,73.0310893 41.701106,74.6812408 41.352408,76.9178388 L36.7101463,106.673398 L36.0603001,110.359382 C35.5108366,113.504708 34.3044826,115.929744 32.4729378,117.565806 C30.6519595,119.196586 28.3237843,119.989081 25.3563294,119.989081 C22.9612323,119.989081 21.1825205,119.457229 20.0677437,118.409374 C18.9705779,117.377369 18.4387254,115.855778 18.4387254,113.758307 C18.4387254,113.487097 18.4809919,112.763285 18.7539625,111.007467 L25.0727922,75.2342264 C25.1696527,74.6882852 25.018198,74.126494 24.6624557,73.7020687 C24.3049522,73.2776434 23.7783831,73.0310893 23.2236363,73.0310893 L8.62411064,73.0310893 C7.71186043,73.0310893 6.93169277,73.6879799 6.7749548,74.5843802 L0.538896846,110.376993 C0.181393383,112.541386 -4.4408921e-15,114.598352 -4.4408921e-15,116.488013 C0.00176110081,123.189001 2.16615399,128.412426 6.43330124,132.013877 Z M2.39157489,110.683425 L5.34670205,93.7293071 L5.54570644,92.5863526 L8.62763285,74.9084228 L23.2271585,74.9084228 L20.1047268,92.5863526 L19.9022002,93.7293071 L16.9083288,110.683425 C16.6776246,112.166271 16.5649142,113.191232 16.5649142,113.761829 C16.5649142,116.377063 17.3028154,118.384718 18.7856623,119.77951 C18.9635335,119.946815 19.1537324,120.103553 19.3527368,120.251485 C20.807406,121.33104 22.8062554,121.868176 25.3598516,121.868176 C28.7746261,121.868176 31.5642097,120.904854 33.7286026,118.965882 C35.8929955,117.033954 37.2877874,114.269026 37.9129781,110.683425 L38.2651983,108.682814 L38.4096086,107.793458 L39.1087656,103.496372 L39.2478925,102.642238 C39.2461314,102.642238 39.2443703,102.642238 39.2426092,102.642238 L41.8701716,85.8025923 L43.1099866,77.27182 C43.3072299,75.9157724 44.4695564,74.9084228 45.841454,74.9084228 L45.894287,74.9084228 C45.8960481,74.9084228 45.8960481,74.9084228 45.8960481,74.9084228 L55.0731444,74.9084228 C55.0731444,74.9084228 55.0749055,74.9084228 55.0749055,74.9084228 L55.0977998,74.9084228 C56.7708456,74.9084228 58.0599714,76.380703 57.8327893,78.0378989 C57.5034635,80.450607 57.0297274,83.8794703 56.58593,86.9332191 C56.5824078,86.9613967 56.5771245,86.9913354 56.5736023,87.019513 L56.3816423,88.7894193 L55.7106629,92.5863526 L55.5081363,93.7293071 L54.8177848,97.6371898 L53.7716909,103.563294 L52.5142649,110.681663 C51.5438984,116.091765 49.6242985,120.658299 46.7537042,124.38655 C43.8760655,128.1148 40.373236,130.892056 36.250499,132.711273 C32.1224787,134.532252 27.6369549,135.444502 22.8009721,135.444502 C16.5332144,135.444502 11.4858995,133.824289 7.6449386,130.57858 C7.57449456,130.518703 7.50933383,130.455303 7.4406509,130.395426 C3.73353371,127.156761 1.87733346,122.521544 1.87733346,116.486252 C1.87733346,114.667035 2.05344354,112.735107 2.39157489,110.683425 Z" id="Shape" fill="#000000" fillRule="nonzero"></path>
                <path d="M91.3430155,93.1463827 C91.6987578,93.5989856 92.242938,93.8631507 92.8170568,93.8631507 L108.355249,93.8631507 C109.290394,93.8631507 110.082889,93.1745603 110.213211,92.2499824 C110.283655,91.7480687 110.318877,91.0453894 110.318877,90.1032005 C110.318877,86.408411 109.308005,83.1503745 107.312678,80.4224294 C105.345528,77.7244229 102.571794,75.6410407 99.0654425,74.23216 C95.6788457,72.8673069 91.7656797,72.1769554 87.4351328,72.1769554 C82.6431775,72.1769554 78.3126306,73.0064339 74.5667692,74.6407354 C70.7240472,76.3067368 67.6685373,78.7687557 65.4830112,81.9563482 C63.2728297,85.1774016 62.1827083,88.9901848 62.2443469,93.2626154 C62.2443469,96.8411722 63.1425083,99.8861155 64.9141757,102.314673 C66.596027,104.616432 68.6089652,106.46911 70.9019184,107.823397 C73.0416559,109.080823 75.8347618,110.426304 79.2019865,111.822857 C82.4565008,113.175382 84.8797755,114.401108 86.3996055,115.466574 C87.5161434,116.250264 88.0356682,117.173081 88.0356682,118.372391 C88.0356682,119.536478 87.6605537,120.364196 86.8592528,120.973537 C85.918825,121.685021 84.5310776,122.044286 82.7365158,122.044286 C80.834527,122.044286 79.4538239,121.607533 78.633151,120.748116 C77.8177613,119.893982 77.481391,118.689389 77.6081903,117.067415 C77.6486956,116.546129 77.4690633,116.030127 77.1150821,115.647968 C76.7593397,115.264048 76.2609482,115.045671 75.7379012,115.045671 L60.5378402,115.045671 C59.5815624,115.045671 58.7767394,115.765961 58.6728344,116.716956 C58.5513185,117.815883 58.4932022,118.636556 58.4932022,119.224763 C58.4932022,125.038157 60.8196163,129.594125 65.4055228,132.764106 C69.7695306,135.791439 75.4578862,137.327119 82.3138516,137.327119 C87.2854392,137.327119 91.7075633,136.48179 95.4534248,134.814028 C99.2996689,133.109282 102.297062,130.687769 104.362834,127.616409 C106.446216,124.518632 107.502876,120.977059 107.502876,117.09207 C107.502876,113.522319 106.611759,110.445676 104.854181,107.944913 C103.174091,105.553338 101.136497,103.610844 98.7924719,102.168502 C96.6051847,100.831827 93.7645291,99.3595463 90.3515157,97.7974499 C87.1163735,96.3163641 84.7283208,95.0166718 83.2542795,93.9353559 C81.7943269,92.8663677 81.6252612,91.823796 81.6252612,91.1334445 C81.6252612,89.9992956 81.9950924,89.2068002 82.8298542,88.5604762 C83.7649987,87.8313805 85.0558856,87.4615493 86.6672928,87.4615493 C88.1166788,87.4615493 89.2296945,87.8032029 89.9834457,88.4794656 C90.6949304,89.115223 91.0277784,89.9059572 91.0277784,90.9643788 C91.0277784,91.3923263 90.9943175,91.543781 90.9925564,91.5490643 C90.8569517,92.103811 90.985512,92.6937798 91.3430155,93.1463827 Z M86.6672928,85.5806936 C84.6226548,85.5806936 82.9513701,86.0808463 81.6763332,87.0758682 C80.3942518,88.0708902 79.7496889,89.4216545 79.7496889,91.1299223 C79.7496889,91.6406415 79.8306995,92.1249442 79.9733487,92.5881137 C80.0966257,92.9878836 80.2744969,93.3682814 80.50344,93.7310682 C80.8979266,94.3544979 81.4385845,94.9286167 82.144786,95.4463804 C83.7332989,96.610468 86.2111677,97.9612323 89.569587,99.5004344 C92.9280062,101.039637 95.6753235,102.459084 97.8132998,103.765821 C99.9459929,105.079602 101.779299,106.830136 103.318501,109.020945 C104.857703,111.209994 105.627304,113.900956 105.627304,117.090309 C105.627304,120.617794 104.683354,123.777209 102.806021,126.566793 C100.928687,129.356376 98.2218752,131.533097 94.6926292,133.096954 C91.1651443,134.666095 87.0353629,135.448024 82.3138516,135.448024 C75.820673,135.448024 70.5408928,134.040905 66.4762721,131.219621 C62.404607,128.405382 60.3705356,124.400639 60.3705356,119.221241 C60.3705356,118.708761 60.4268908,117.93916 60.5396013,116.919482 L75.7396623,116.919482 C75.5705967,119.083875 76.083077,120.792143 77.2788644,122.042525 C78.4728908,123.292906 80.293869,123.919858 82.740038,123.919858 C84.9607862,123.919858 86.7113204,123.437317 87.9951628,122.468711 C89.2719609,121.500106 89.9147627,120.135253 89.9147627,118.372391 C89.9147627,116.551412 89.1011341,115.068566 87.4809214,113.930894 C85.8554254,112.793223 83.3405734,111.509381 79.9240379,110.089934 C76.6219738,108.719797 73.9310118,107.425388 71.854674,106.204945 C69.7783361,104.979219 67.9696856,103.314979 66.4322446,101.206941 C64.9705309,99.2045695 64.2114965,96.7090896 64.1392913,93.7310682 C64.1357691,93.5743302 64.1252025,93.4228755 64.1252025,93.2626154 C64.1216803,93.0336722 64.134008,92.8117735 64.1375302,92.5863526 C64.1974077,88.9496795 65.1554465,85.7550426 67.03278,83.0165309 C69.0210628,80.1142367 71.7807077,77.8934886 75.315237,76.3613309 C78.842722,74.8221288 82.8844483,74.0525278 87.438655,74.0525278 C91.5367366,74.0525278 95.1822152,74.6900463 98.3662855,75.9721276 C101.555639,77.254209 104.033508,79.1068871 105.798131,81.5266396 C107.562754,83.9411088 108.443304,86.8064198 108.443304,90.1032005 C108.443304,90.9590955 108.411604,91.5860474 108.355249,91.9858173 L92.8170568,91.9858173 C92.8734121,91.7551131 92.9051119,91.4169817 92.9051119,90.9590955 C92.9051119,89.3635382 92.348604,88.0691291 91.2355883,87.0741071 C90.1278559,86.0808463 88.6009815,85.5806936 86.6672928,85.5806936 Z" id="Shape" fill="#000000" fillRule="nonzero"></path>
                <path d="M157.123653,73.7020687 C156.766149,73.2776434 156.23958,73.0310893 155.684833,73.0310893 L141.085308,73.0310893 C140.174819,73.0310893 139.396412,73.6844577 139.237913,74.580858 L128.646653,134.518163 C128.549792,135.064104 128.701247,135.625895 129.056989,136.050321 C129.414493,136.474746 129.941062,136.7213 130.495809,136.7213 L145.095334,136.7213 C146.005823,136.7213 146.78423,136.067932 146.942729,135.171531 L157.533989,75.2342264 C157.629089,74.6882852 157.479395,74.1282551 157.123653,73.7020687 Z M152.562402,92.5863526 L152.359875,93.7293071 L145.095334,134.845728 L130.495809,134.845728 L137.760349,93.7293071 L137.962876,92.5863526 L141.085308,74.9084228 L155.684833,74.9084228 L152.562402,92.5863526 Z" id="Shape" fill="#000000" fillRule="nonzero"></path>
                <polygon id="Path" fill="#FFFFFF" fillRule="nonzero" points="128.773452 50.7197032 109.646136 50.7197032 111.181816 42.0251485 111.384343 40.8821941 102.305868 40.8821941 96.7795337 40.8821941 96.5787682 42.0251485 93.081222 61.8199216 126.809825 61.8199216"></polygon>
                <polygon id="Path" fill="#FFFFFF" fillRule="nonzero" points="163.151901 92.5863526 189.367647 92.5863526 180.875619 74.9084228 166.274333 74.9084228"></polygon>
                <polygon id="Path" fill="#FFFFFF" fillRule="nonzero" points="200.77782 92.5863526 214.915937 92.5863526 220.429943 51.0050015 220.481015 50.7197032 150.375114 50.7197032 151.910794 42.0251485 152.113321 40.8821941 137.510273 40.8821941 137.307746 42.0251485 133.8102 61.8199216 204.030573 61.8199216"></polygon>
                <path d="M67.03278,83.0165309 C65.1536854,85.7550426 64.1956466,88.9496795 64.1375302,92.5863526 L79.9751098,92.5863526 C79.8324606,92.1231831 79.75145,91.6406415 79.75145,91.1281612 C79.75145,89.4198934 80.3960129,88.0691291 81.6780943,87.0741071 C82.9548923,86.0790852 84.6244159,85.5789325 86.6690539,85.5789325 C88.6027426,85.5789325 90.1278559,86.0790852 91.2355883,87.0741071 C92.348604,88.0691291 92.9051119,89.3635382 92.9051119,90.9590955 C92.9051119,91.4152206 92.8734121,91.753352 92.8170568,91.9858173 L108.355249,91.9858173 C108.411604,91.5860474 108.443304,90.9590955 108.443304,90.1032005 C108.443304,86.8064198 107.560993,83.9411088 105.798131,81.5266396 C104.033508,79.105126 101.5574,77.254209 98.3662855,75.9721276 C95.1822152,74.6900463 91.5349755,74.0525278 87.438655,74.0525278 C82.8844483,74.0525278 78.8444831,74.8221288 75.315237,76.3613309 C71.7807077,77.8934886 69.0210628,80.1124756 67.03278,83.0165309 Z" id="Path" fill="#FFFFFF" fillRule="nonzero"></path>
                <polygon id="Path" fill="#FFFFFF" fillRule="nonzero" points="152.562402 92.5863526 155.684833 74.9084228 141.085308 74.9084228 137.961115 92.5863526"></polygon>
                <path d="M63.7976378,51.4945876 L76.0548994,61.5275788 L77.2700589,62.5226008 C78.1400427,61.791744 78.7634724,60.7650222 78.9765656,59.5762791 L82.3473126,40.8821941 L80.904971,40.8821941 L65.7260432,40.8821941 L64.1604245,40.8821941 L64.0389086,40.8821941 L62.3711461,50.3287388 L62.4327847,50.3798107 L63.7976378,51.4945876 Z" id="Path" fill="#FFFFFF" fillRule="nonzero"></path>
                <path d="M56.5718412,87.019513 C56.4767417,87.6711203 56.3834034,88.3033555 56.2935872,88.9038909 C56.290065,88.923263 56.2883039,88.9426351 56.2847817,88.9637683 C56.0646441,90.425482 55.8656397,91.7005189 55.7089018,92.5863526 L56.3798812,88.7894193 L56.5718412,87.019513 Z" id="Path" fill="#FFFFFF" fillRule="nonzero"></path>
                <g transform="translate(7.4407, 92.5864)" fill="#007A3D" fillRule="nonzero" id="Path">
                    <path d="M90.37441,11.1777068 C88.2346726,9.87097001 85.4891164,8.44976166 82.1306972,6.91232066 C78.7722779,5.37311856 76.2944091,4.02235424 74.7058962,2.85826661 C73.9996947,2.34050297 73.4590368,1.76638411 73.0645502,1.14295442 C72.833846,0.780167657 72.6577359,0.399769883 72.5344589,0 L56.6968793,0 C56.6933571,0.225420903 56.6810294,0.447319605 56.6845516,0.676262709 C56.6845516,0.834761782 56.6951182,0.987977552 56.6986404,1.14471552 C56.7726067,4.12449809 57.52988,6.61821683 58.9915937,8.62058844 C60.5307958,10.7286261 62.3376852,12.3928664 64.4140231,13.6185925 C66.4903609,14.8390354 69.1813229,16.1334445 72.4833869,17.5035809 C75.8981614,18.9230282 78.4130134,20.2068706 80.0402705,21.3445418 C81.6604832,22.4822129 82.4741118,23.9650598 82.4741118,25.786038 C82.4741118,27.550661 81.8295489,28.913753 80.5545119,29.8823585 C79.2724306,30.852725 77.5201353,31.3335055 75.2993871,31.3335055 C72.8532181,31.3335055 71.034001,30.7083147 69.8382135,29.4561721 C68.6441872,28.2057905 68.1299458,26.4975227 68.2990114,24.3331298 L53.0989504,24.3331298 C52.9862399,25.3528072 52.9298847,26.1224082 52.9298847,26.6348886 C52.9298847,31.814286 54.962195,35.8172682 59.0356212,38.6332684 C63.102003,41.4545519 68.3817832,42.8616714 74.8732007,42.8616714 C79.5964731,42.8616714 83.7244934,42.0797426 87.2519783,40.5106018 C90.7794632,38.9467443 93.4880363,36.7700237 95.3653697,33.98044 C97.2427032,31.1908564 98.1866532,28.0314415 98.1866532,24.5039566 C98.1866532,21.314603 97.4170522,18.623641 95.87785,16.4345927 C94.340409,14.2437833 92.5071031,12.491488 90.37441,11.1777068 Z"></path>
                    <polygon points="193.337169 0 193.217414 1.14295442 191.280203 19.4654472 182.47646 1.14295442 181.926997 0 155.71125 0 155.508723 1.14295442 148.244182 42.261136 162.843708 42.261136 169.417897 5.29210792 187.264893 42.261136 201.869702 42.261136 207.323831 1.14295442 207.475286 0"></polygon>
                    <polygon points="130.319698 1.14295442 123.055158 42.261136 137.654683 42.261136 144.919224 1.14295442 145.121751 0 130.520464 0"></polygon>
                    <path d="M46.89107,0 L44.5717003,0 L42.2699415,0 L33.4433043,0 L33.4415432,0.00528330242 L31.8072416,10.0558856 L31.6681147,10.9100195 L30.9689577,15.2071055 L30.8245474,16.0964614 L30.4723272,18.0970719 C29.8471365,21.680912 28.4523446,24.4458403 26.2879517,26.379529 C24.1235588,28.318501 21.3339752,29.2818231 17.9192007,29.2818231 C15.3656045,29.2818231 13.364994,28.7429262 11.9120858,27.6651326 L0,37.8125954 C0.0686829314,37.8724728 0.133843661,37.9358724 0.204287693,37.9957499 C4.04524855,41.2414587 9.09256346,42.8616714 15.3603212,42.8616714 C20.196304,42.8616714 24.6800667,41.9476601 28.8098481,40.128443 C32.9325851,38.3092258 36.4354146,35.5302087 39.3130533,31.8037194 C42.1836476,28.075469 44.1050086,23.5089347 45.073614,18.098833 L46.33104,10.9804635 L47.3771339,5.05435931 L48.0674854,1.14647662 L48.270012,0.00352220161 L48.2418344,0.00352220161 L46.89107,0.00352220161 L46.89107,0 Z"></path>
                </g>
                <polygon id="Path" fill="#FF0000" fillRule="nonzero" points="29.9721746 42.0251485 30.171179 40.8821941 30.7805199 37.3987367 46.1337967 37.3987367 35.3206378 28.1864184 17.9121563 27.8359593 15.6086364 40.8821941 15.4061098 42.0251485 11.9103247 61.8199216 26.5098504 61.8199216"></polygon>
                <path d="M7.4406509,130.397187 L19.3527368,120.249724 C19.1537324,120.101792 18.9635335,119.945054 18.7856623,119.777749 C17.3028154,118.382957 16.5649142,116.375302 16.5649142,113.760068 C16.5649142,113.191232 16.6776246,112.16451 16.9083288,110.681663 L19.9022002,93.727546 L20.1047268,92.5845915 L23.2271585,74.9066617 L8.62763285,74.9066617 L5.54570644,92.5845915 L5.34670205,93.727546 L2.39157489,110.681663 C2.05344354,112.733346 1.87909331,114.667035 1.87909331,116.486252 C1.87733346,122.523305 3.73353371,127.158523 7.4406509,130.397187 Z" id="Path" fill="#FF0000" fillRule="nonzero"></path>
                <path d="M62.2478691,63.6990161 L74.0472445,63.6990161 C75.2641651,63.6990161 76.3947918,63.260502 77.27182,62.5226008 L76.0566605,61.5275788 L63.7993989,51.4945876 L62.4363069,50.3798107 L62.3746683,50.3287388 L60.4022354,61.495879 C60.3758189,61.6385282 60.3687745,61.7794163 60.3758189,61.9220654 C60.3969521,62.3218353 60.5448846,62.7092775 60.8090497,63.0227534 C61.1647921,63.4489398 61.6896001,63.6990161 62.2478691,63.6990161 Z" id="Path" fill="#FF0000" fillRule="nonzero"></path>
                <path d="M45.841454,74.9084228 C44.4713175,74.9084228 43.3072299,75.9140113 43.1099866,77.27182 L41.8701716,85.8025923 L40.8839552,92.5845915 L40.8839552,92.5863526 L49.7105924,92.5863526 L52.0123512,92.5863526 L54.3317209,92.5863526 L55.6807242,92.5863526 L55.7089018,92.5863526 C55.8656397,91.70228 56.0646441,90.425482 56.2847817,88.9637683 C56.2883039,88.9443962 56.290065,88.9250241 56.2935872,88.9038909 C56.3834034,88.3015944 56.4767417,87.6711203 56.5718412,87.019513 C56.5753634,86.9895743 56.5806467,86.9613967 56.5841689,86.9332191 C57.0279663,83.8812314 57.5017024,80.4523681 57.8310282,78.0378989 C58.0582103,76.380703 56.7690845,74.9084228 55.0960387,74.9084228 L55.0731444,74.9084228 L45.8925259,74.9084228 L45.841454,74.9084228 L45.841454,74.9084228 Z" id="Path" fill="#FF0000" fillRule="nonzero"></path>
            </g>
        </g>
    </g>
</svg>